<?xml version="1.0" ?><svg viewBox="0 0 88 88" xmlns="http://www.w3.org/2000/svg"><title/><g data-name="Drawing Compass" id="Drawing_Compass"><path d="M74.18,85.67,63.7972,56H68a1,1,0,0,0,0-2H63.0973L58.45,40.72c-.244.3272-.5014.6439-.7665.9538-.132.1533-.271.3-.4077.4486A18.0743,18.0743,0,0,1,50.03,46.96L52.4942,54H47V53a3,3,0,0,0-6,0v1H35.5058L37.97,46.96a18.0743,18.0743,0,0,1-7.2458-4.8376c-.1367-.1487-.2757-.2953-.4077-.4486-.2651-.31-.5225-.6266-.7665-.9538L24.9027,54H20a1,1,0,0,0,0,2h4.2028L13.82,85.67a.9962.9962,0,0,0,1.88.66l2.2238-6.3582A12.9775,12.9775,0,0,0,29.44,71.33L34.8058,56H41v1a3,3,0,0,0,6,0V56h6.1942L58.56,71.33a12.9775,12.9775,0,0,0,11.5162,8.6418L72.3,86.33a.9962.9962,0,0,0,1.88-.66Z"/><path d="M50,2a1.0029,1.0029,0,0,0-1-1H39a1.0029,1.0029,0,0,0-1,1V7H50Z"/><path d="M40,38.05V21.95A8.9809,8.9809,0,0,0,40,38.05Z"/><path d="M44,46A16,16,0,1,0,28,30,16.0183,16.0183,0,0,0,44,46Zm0-27A11,11,0,1,1,33,30,11.0155,11.0155,0,0,1,44,19Z"/><path d="M44,38.9971a8.9735,8.9735,0,0,0,2-.2289V21.2318a8.8519,8.8519,0,0,0-4,0V38.7682A9.2084,9.2084,0,0,0,44,38.9971Z"/><path d="M44,12a18.1644,18.1644,0,0,1,4,.46V9H40v3.46A18.1644,18.1644,0,0,1,44,12Z"/><path d="M53,30a9.0021,9.0021,0,0,0-5-8.05V38.05A9.0021,9.0021,0,0,0,53,30Z"/></g></svg>